inDegrees=no
nColumns=32
nRows=10
DataType=double
version=3
OpenSimVersion=4.5
endheader
time	pelvis_tilt	pelvis_list	pelvis_rotation	pelvis_tz	pelvis_ty	pelvis_tx	hip_flexion_r	hip_adduction_r	hip_rotation_r	knee_angle_r	ankle_angle_r	subtalar_angle_r	mtp_angle_r	hip_flexion_l	hip_adduction_l	hip_rotation_l	knee_angle_l	ankle_angle_l	subtalar_angle_l	mtp_angle_l	lumbar_extension	lumbar_bending	lumbar_rotation	arm_flex_r	arm_add_r	arm_rot_r	elbow_flex_r	arm_flex_l	arm_add_l	arm_rot_l	elbow_flex_l
0.9399999999999999	-0.06813144136265481	-0.03861122634786943	-0.002634052621171215	-0.03085299	0.87516951	0.8920069899999999	0.2331540086115733	0.1264674245045486	-0.1273009377302321	-0.2887880261097064	0.2054061084431674	-0.1646073998844287	0	0.3989786965858529	-0.175337865814465	-0.2142560599458645	-1.109763661832748	0.1014306393837098	-0.2377666429494944	0	-0.09312491784463305	0.04096608057255018	0.1306116159618929	0.05300714443210504	-0.2205135372512939	-0.02099257676955714	0.7334626123797583	-0.1266050653581511	-0.261092507810009	0.02515596859400266	0.9234657850831565
0.9500000000000002	-0.06861072264207131	-0.03713916561554583	-0.002551555597389938	-0.03059704999999999	0.87613419	0.90047718	0.2142810296733411	0.1255749751752167	-0.1294843852906486	-0.2724101159394514	0.2087328400387552	-0.1620660959483028	0	0.4216963391602558	-0.1719588179745487	-0.2126338840929506	-1.090288236251965	0.1042614060017461	-0.2374557924793314	0	-0.09226319084799227	0.03806210280291342	0.1362652140585213	0.06912065223051449	-0.2199828011262525	-0.01630502399896126	0.742031965902349	-0.1301496849047553	-0.2623024510307688	0.0225033315011554	0.9213781250318138
0.96	-0.05999920146573787	-0.03486359519616407	-0.002093871134222912	-0.03041004999999999	0.87794367	0.90924908	0.1853764605397304	0.1230334286383247	-0.1375093200049937	-0.2563594015968702	0.2137309725789471	-0.1457217301336065	0	0.429956683709577	-0.1677281943219871	-0.2138711656275148	-1.061928900471762	0.1136131613064742	-0.2348949991495801	0	-0.1025360567554298	0.03444315614118495	0.1387161319305425	0.08629495770925084	-0.2282319219867529	0.01372381939267378	0.7573107331595447	-0.1338309756000297	-0.2577400231831764	0.002684727414606123	0.9203032160154186
0.9699999999999998	-0.06243230319427927	-0.03378406010869051	-0.002111553383636577	-0.03005842	0.87831837	0.91729357	0.1704905686424877	0.122952844692365	-0.1383810070720768	-0.2427110512882502	0.2175663208693012	-0.1445323177444367	0	0.4526886442670316	-0.1646403986500632	-0.2130389210816646	-1.034950284714434	0.117609891117048	-0.2363323914095317	0	-0.1002927812281171	0.03172956883473247	0.144136305329686	0.102538223930762	-0.2280059744543165	0.01592233664945075	0.7664286363356542	-0.137873815089579	-0.2582875364601855	0.0009981838188786913	0.9183843835824835
0.98	-0.05798178495994823	-0.02932749372313766	-0.001702119776019971	-0.03016791999999999	0.87953067	0.9259342899999999	0.1480667187373364	0.1182762044183843	-0.1419109379276963	-0.2299989524881336	0.2197278638494734	-0.1361472853025567	0	0.4622502757633779	-0.1559029428679023	-0.2146747436639998	-0.9967303289234498	0.1228226986316364	-0.2392298601482561	0	-0.1058389682719192	0.02627933580441479	0.1456814685293556	0.1166616778199831	-0.2315931831762621	0.03274317455741471	0.7850572995473362	-0.1427582828877019	-0.2546515201293067	-0.01508416095120347	0.9167446542551507
0.9899999999999998	-0.05995706339156281	-0.02888179192362105	-0.001733499541045008	-0.02995708	0.87981186	0.93427656	0.1318126213515532	0.1188909015269551	-0.1415738246156139	-0.2155264837121277	0.2238284416232055	-0.1325154668375947	0	0.4787211500235757	-0.1532696345983892	-0.2163756998396244	-0.9580926203729531	0.1258921264585123	-0.238284640963523	0	-0.1034174628629856	0.02470803682279532	0.1489601402150617	0.1312879045180361	-0.2310789290680119	0.03675947457035821	0.7955548359297964	-0.1467992960647219	-0.2552099944230842	-0.01821114834054672	0.9135736199914747
1	-0.0593281106871923	-0.02547889803896921	-0.001513222889733059	-0.02987185000000001	0.88042095	0.94258526	0.1137891302885821	0.1160415269065657	-0.1420960178775655	-0.2025706877301478	0.2257345411811156	-0.1284173491054433	0	0.4887264175122414	-0.1468041775761068	-0.2201988044707427	-0.9128020497226751	0.1254835474986143	-0.2328281524986333	0	-0.1047969189184172	0.01922371925751545	0.1504327982488133	0.1452872115667665	-0.2303264191909073	0.04284581588491133	0.8096351616860034	-0.1499732919776055	-0.2549198206940366	-0.02327097285927599	0.908472088910407
1.01	-0.05224257035113199	-0.02025442645933248	-0.001059031058932122	-0.03030177000000001	0.88135002	0.9509005699999999	0.09050392234939396	0.1096919274580246	-0.1492763647285245	-0.1927319358222296	0.2301777626917309	-0.1191117862082973	0	0.4897774471083437	-0.136925795873127	-0.224605579666852	-0.8627557570573441	0.1268338043701931	-0.2256472227077042	0	-0.1142992244045602	0.01331319316156319	0.1525185375653141	0.1597767873619687	-0.2334507676424216	0.05279631232365556	0.8285491549889927	-0.1492863005388903	-0.2501679570783608	-0.03351040820662202	0.904747973943941
1.02	-0.04813050930436829	-0.01848276768055281	-0.0008902185164876508	-0.0305453	0.88185039	0.95936099	0.06798494973108096	0.1079445701334395	-0.1546728328912345	-0.1785717111617945	0.2358783666939056	-0.1104851216581249	0	0.4914369757997771	-0.1302179353070229	-0.2260592495655394	-0.8088765885350772	0.1280513012014226	-0.2117570861782189	0	-0.1193558631738058	0.01071355560944662	0.1541896356952931	0.1724868741465237	-0.2359869673631501	0.06215657942461272	0.8447666322254764	-0.1507347086189488	-0.247692788030916	-0.03936894286401955	0.8995550972167456
1.03	-0.04473545286144734	-0.01719225265810025	-0.0007695754720769136	-0.03079837999999999	0.88212608	0.96778381	0.04749745623721941	0.1065663752529253	-0.1592118865913525	-0.1668174532439626	0.2412624339432144	-0.1026695508812624	0	0.4912322088850112	-0.1249166404720229	-0.2307898381412322	-0.7505992800077083	0.1299999833024228	-0.1904283069839159	0	-0.1236908711292048	0.008434370281840024	0.1549942979303094	0.1852226582863203	-0.2361342626800429	0.06873444507550149	0.860493757637816	-0.1536840080514038	-0.2457154916058952	-0.0434431188676238	0.8955449248802732
